<?xml version="1.0" standalone="no"?>
<!DOCTYPE svg PUBLIC "-//W3C//DTD SVG 20010904//EN"
 "http://www.w3.org/TR/2001/REC-SVG-20010904/DTD/svg10.dtd">
<svg version="1.0" xmlns="http://www.w3.org/2000/svg"
 width="1500.000000pt" height="1000.000000pt" viewBox="0 0 2560.000000 649.000000"
 preserveAspectRatio="xMidYMid meet">
<metadata>
Created by potrace 1.16, written by Peter Selinger 2001-2019
</metadata>
<g transform="translate(0.000000,649.000000) scale(0.100000,-0.100000)"
fill="#022144" stroke="none">
<path d="M16860 6484 c-272 -31 -396 -54 -608 -109 -432 -114 -869 -336 -1237
-631 -141 -113 -376 -348 -488 -489 -376 -471 -606 -1013 -683 -1607 -8 -68
-18 -211 -21 -318 -32 -1094 475 -2103 1372 -2731 373 -261 852 -460 1305
-543 274 -50 642 -69 915 -47 1172 94 2201 780 2705 1805 175 356 272 687 322
1096 16 134 16 572 0 705 -65 533 -230 994 -502 1408 -522 794 -1339 1301
-2325 1443 -105 15 -664 28 -755 18z m542 -1503 c208 -36 373 -95 545 -193
136 -78 228 -151 358 -282 214 -216 361 -469 444 -762 146 -519 60 -1049 -246
-1514 -103 -155 -302 -355 -456 -458 -435 -290 -949 -356 -1441 -185 -374 129
-710 419 -916 789 -168 302 -251 683 -221 1011 23 251 77 448 180 658 251 511
708 855 1247 939 137 21 370 20 506 -3z"/>
<path d="M22920 6410 c-754 -71 -1403 -436 -1764 -992 -166 -255 -266 -556
-285 -856 -48 -758 311 -1358 1022 -1707 289 -143 443 -186 1137 -319 503 -97
610 -123 711 -177 148 -79 238 -210 247 -357 9 -157 -44 -291 -161 -406 -84
-83 -170 -132 -302 -172 -78 -23 -113 -27 -260 -31 -191 -5 -308 8 -460 52
-323 94 -565 310 -686 610 -35 88 -79 253 -79 296 0 16 -5 29 -11 29 -26 0
-1385 -323 -1394 -332 -15 -14 30 -213 91 -398 264 -802 871 -1326 1744 -1504
466 -95 1000 -95 1430 0 1028 228 1718 1036 1677 1964 -35 777 -520 1366
-1356 1652 -187 63 -320 94 -844 193 -575 109 -600 115 -687 161 -131 68 -215
173 -244 304 -42 183 7 343 149 485 127 128 289 192 510 202 414 18 745 -183
895 -543 34 -82 80 -250 80 -291 0 -19 4 -23 18 -19 9 3 319 89 687 192 369
102 673 189 677 192 9 9 -24 180 -58 296 -156 544 -541 996 -1054 1239 -248
117 -513 189 -835 227 -125 15 -480 21 -595 10z"/>
<path d="M2691 6258 c-10 -24 -620 -1392 -1355 -3040 -735 -1648 -1336 -3002
-1336 -3008 0 -7 258 -10 823 -10 l823 0 944 2113 c519 1161 946 2115 949
2119 3 3 432 -946 952 -2110 l946 -2117 885 -3 885 -2 639 960 c351 528 641
959 644 959 3 0 289 -432 635 -959 l630 -960 894 0 c817 0 893 1 887 16 -3 9
-479 709 -1056 1555 -578 846 -1050 1543 -1050 1548 0 6 454 673 1008 1483
554 810 1011 1479 1016 1486 6 9 -183 12 -932 12 l-940 0 -542 -890 c-299
-489 -546 -890 -550 -890 -5 0 -245 399 -536 886 -290 487 -532 888 -538 890
-6 2 -435 3 -954 2 l-943 -3 1031 -1487 c707 -1020 1029 -1492 1023 -1501 -43
-71 -1127 -1635 -1132 -1633 -3 3 -470 1044 -1036 2315 l-1030 2311 -833 0
-833 0 -18 -42z"/>
<path d="M11830 3250 l0 -3050 765 0 765 0 0 3050 0 3050 -765 0 -765 0 0
-3050z"/>
</g>
</svg>
