<?xml version="1.0" standalone="no"?>
<!DOCTYPE svg PUBLIC "-//W3C//DTD SVG 20010904//EN"
 "http://www.w3.org/TR/2001/REC-SVG-20010904/DTD/svg10.dtd">
<svg version="1.0" xmlns="http://www.w3.org/2000/svg" width="512px" height="512px" viewBox="0 0 423.000000 365.000000"
 preserveAspectRatio="xMidYMid meet">

<g transform="translate(0.000000,365.000000) scale(0.100000,-0.100000)"
fill="#022144" stroke="none">
<path d="M1831 3342 c-292 -169 -531 -309 -531 -312 1 -6 253 -150 263 -150 4
0 246 138 538 307 438 252 528 308 512 316 -10 5 -71 40 -135 78 l-116 67
-531 -306z"/>
<path d="M2103 3147 l-523 -302 0 -153 c0 -85 4 -152 8 -150 5 2 243 138 530
303 l521 300 1 153 c0 83 -3 152 -7 151 -5 0 -243 -136 -530 -302z"/>
<path d="M2680 2951 l0 -159 103 -58 c56 -32 117 -66 135 -77 l32 -19 0 160 0
160 -131 76 c-72 42 -133 76 -135 76 -2 0 -4 -72 -4 -159z"/>
<path d="M2440 2982 l-185 -107 -3 -153 c-1 -83 1 -152 5 -151 5 0 91 49 193
108 l185 107 3 152 c1 84 -1 152 -5 152 -5 0 -91 -49 -193 -108z"/>
<path d="M1270 2845 l0 -153 113 -65 c61 -35 122 -69 135 -76 l22 -12 0 153
-1 153 -134 77 -135 77 0 -154z"/>
<path d="M1915 2677 c-155 -89 -293 -170 -308 -180 l-27 -17 0 -150 c0 -83 2
-150 3 -150 2 0 143 80 313 178 l309 179 3 151 c1 84 -1 152 -5 152 -5 0 -134
-74 -288 -163z"/>
<path d="M2320 2562 l-305 -177 -3 -154 c-1 -95 1 -152 7 -149 5 1 147 82 315
178 l305 175 1 153 c0 83 -3 152 -7 151 -5 0 -145 -80 -313 -177z"/>
<path d="M2682 2589 l3 -153 125 -72 c69 -40 128 -73 133 -73 4 -1 6 67 5 150
l-3 151 -120 70 c-66 39 -126 72 -133 75 -10 4 -12 -27 -10 -148z"/>
<path d="M1270 2491 c0 -145 1 -151 23 -165 12 -8 73 -44 135 -80 l112 -65 0
154 0 153 -112 65 c-62 35 -123 69 -135 76 l-23 12 0 -150z"/>
<path d="M2680 2235 l0 -153 113 -65 c61 -35 122 -69 135 -76 l22 -12 0 153
-1 153 -134 77 -135 77 0 -154z"/>
<path d="M2103 2077 l-523 -302 0 -153 c0 -85 4 -152 8 -150 5 2 243 138 530
303 l521 300 1 153 c0 83 -3 152 -7 151 -5 0 -243 -136 -530 -302z"/>
<path d="M1768 2242 l-187 -107 -1 -154 c0 -119 3 -152 13 -148 6 3 93 52 192
110 l180 104 3 152 c1 83 -1 151 -5 151 -5 0 -92 -49 -195 -108z"/>
<path d="M1270 2121 l0 -159 113 -65 c61 -35 122 -69 135 -76 l22 -12 0 163 0
163 -128 73 c-71 39 -131 72 -135 72 -4 0 -7 -72 -7 -159z"/>
<path d="M2145 1749 c-286 -164 -522 -302 -526 -306 -4 -5 52 -42 125 -84
l132 -76 528 305 527 305 -93 54 c-51 30 -111 65 -134 78 l-41 24 -518 -300z"/>
<path d="M911 794 c-84 -18 -148 -58 -188 -118 -49 -72 -55 -110 -51 -296 3
-147 6 -170 27 -212 58 -120 204 -180 383 -157 128 16 205 68 252 169 19 40
21 63 21 220 0 201 -7 231 -68 298 -50 53 -113 87 -192 101 -73 14 -104 13
-184 -5z m195 -188 c36 -41 47 -99 42 -226 -5 -130 -19 -170 -70 -196 -44 -23
-121 -14 -153 16 -37 35 -47 89 -43 231 3 111 6 131 24 156 31 42 62 54 123
50 44 -3 59 -9 77 -31z"/>
<path d="M17 788 c-16 -12 -17 -44 -15 -388 l3 -375 98 -3 97 -3 0 135 0 136
173 2 172 3 3 82 3 83 -173 2 -173 3 -3 78 -3 77 179 0 c125 0 182 4 190 12
18 18 15 133 -4 152 -13 14 -52 16 -273 16 -190 0 -262 -3 -274 -12z"/>
<path d="M1507 788 c-16 -12 -17 -44 -15 -388 l3 -375 100 0 100 0 3 133 3
132 54 0 54 0 68 -132 68 -133 99 -3 c55 -1 103 1 107 5 5 5 -27 74 -71 153
-69 127 -77 146 -62 154 9 5 34 25 55 45 68 65 85 188 37 280 -36 71 -109 115
-217 131 -101 14 -365 13 -386 -2z m366 -160 c12 -6 27 -18 34 -27 19 -25 16
-95 -6 -122 -17 -21 -29 -24 -110 -27 l-91 -4 0 96 0 96 76 0 c41 0 85 -5 97
-12z"/>
<path d="M2287 788 c-16 -12 -17 -44 -15 -388 l3 -375 89 -3 c65 -2 92 1 98
10 4 7 8 103 8 213 l1 200 53 -100 c64 -121 85 -145 126 -145 51 0 67 15 119
113 85 157 80 162 81 -80 l0 -213 95 0 95 0 0 384 c0 433 8 396 -83 396 -91 0
-88 3 -198 -192 -89 -159 -102 -178 -113 -161 -7 10 -52 89 -100 176 -49 86
-96 162 -106 167 -27 14 -133 12 -153 -2z"/>
<path d="M3212 792 c-9 -7 -12 -91 -10 -388 l3 -379 103 -3 102 -3 0 385 c0
341 -2 385 -16 390 -23 9 -167 7 -182 -2z"/>
<path d="M3583 793 c-10 -4 -13 -91 -13 -389 l0 -385 98 3 97 3 5 142 5 142
110 -142 111 -142 108 -3 c60 -1 114 2 119 7 6 6 -39 74 -124 186 -74 97 -139
184 -146 193 -9 14 9 44 123 191 107 138 132 176 123 187 -15 18 -174 19 -206
1 -12 -6 -66 -68 -120 -137 l-98 -125 -3 130 c-2 88 -7 132 -15 137 -13 8
-154 10 -174 1z"/>
</g>
</svg>
