<?xml version="1.0" standalone="no"?>
<!DOCTYPE svg PUBLIC "-//W3C//DTD SVG 20010904//EN"
 "http://www.w3.org/TR/2001/REC-SVG-20010904/DTD/svg10.dtd">
<svg version="1.0" xmlns="http://www.w3.org/2000/svg" width="512px" height="512px" viewBox="0 0 272.000000 300.000000"
 preserveAspectRatio="xMidYMid meet">

<g transform="translate(0.000000,300.000000) scale(0.100000,-0.100000)"
fill="#022144" stroke="none">
<path d="M1100 2853 c0 -15 323 -968 333 -980 28 -37 43 -12 207 322 90 184
166 335 170 335 3 0 81 -153 172 -339 142 -291 169 -339 185 -335 15 4 53 105
186 497 92 271 167 495 167 500 0 4 -319 7 -710 7 -390 0 -710 -3 -710 -7z"/>
<path d="M376 1715 c-77 -27 -135 -110 -136 -193 -1 -189 229 -278 358 -138
45 49 57 89 50 166 -7 70 -46 126 -111 156 -58 27 -104 30 -161 9z"/>
<path d="M1274 1711 c-84 -38 -139 -149 -116 -235 15 -51 47 -97 90 -127 30
-20 48 -24 112 -24 67 0 82 3 117 28 101 70 120 213 40 304 -61 70 -160 92
-243 54z"/>
<path d="M2184 1711 c-84 -38 -139 -149 -116 -235 26 -94 92 -148 188 -154 51
-3 72 0 110 18 54 27 100 91 109 155 24 157 -144 283 -291 216z"/>
<path d="M1706 1474 c-13 -97 -72 -190 -154 -242 -54 -36 -150 -64 -203 -60
-35 2 -40 -2 -97 -77 -69 -92 -180 -202 -269 -267 -66 -48 -216 -129 -285
-154 -41 -14 -42 -14 -96 18 -71 43 -138 118 -176 198 -29 61 -31 72 -31 178
0 93 -3 112 -15 112 -8 0 -25 3 -38 6 -20 6 -27 -4 -76 -107 -71 -148 -102
-243 -116 -354 -24 -186 23 -357 122 -452 83 -80 219 -133 338 -133 65 0 183
24 274 57 39 14 190 83 336 153 388 187 453 209 756 259 259 43 341 75 427
170 69 78 106 171 107 271 0 46 -25 159 -38 172 -4 4 -26 -1 -48 -13 -23 -11
-68 -25 -102 -31 -122 -23 -268 41 -339 148 -35 53 -63 129 -63 171 0 23 -2
23 -104 23 l-103 0 -7 -46z"/>
</g>
</svg>
