<?xml version="1.0" standalone="no"?>
<!DOCTYPE svg PUBLIC "-//W3C//DTD SVG 20010904//EN"
 "http://www.w3.org/TR/2001/REC-SVG-20010904/DTD/svg10.dtd">
<svg version="1.0" xmlns="http://www.w3.org/2000/svg"
 width="512.000000pt" height="512.000000pt" viewBox="0 0 512.000000 512.000000"
 preserveAspectRatio="xMidYMid meet">

<g transform="translate(0.000000,512.000000) scale(0.100000,-0.100000)"
fill="#022144" stroke="none">
<path d="M538 4117 l-107 -62 -1 -856 0 -856 105 -61 106 -60 104 60 105 61 0
614 c0 582 1 615 18 608 9 -3 250 -141 535 -306 l517 -300 520 301 c286 165
527 303 535 306 13 6 15 -53 13 -492 l-3 -498 -635 -366 -635 -366 -3 -135 -3
-135 733 -423 c402 -233 739 -425 747 -427 9 -2 349 189 756 424 l740 428 2
600 3 599 -101 58 c-55 32 -105 57 -112 55 -7 -2 -56 -28 -110 -58 l-97 -55
-2 -475 -3 -475 -515 -297 c-283 -163 -524 -302 -536 -308 -18 -10 -74 19
-452 237 -254 146 -426 251 -419 255 7 4 248 144 537 311 l525 304 2 864 3
864 -109 63 c-60 34 -111 62 -115 62 -3 0 -288 -163 -633 -362 -346 -200 -632
-362 -638 -360 -5 2 -290 165 -631 363 -342 197 -626 359 -630 358 -5 0 -57
-28 -116 -62z"/>
<path d="M4373 3349 l-103 -60 0 -127 0 -127 98 -55 c53 -30 104 -55 112 -55
8 0 59 25 112 55 l98 55 0 127 0 127 -94 55 c-51 31 -100 58 -107 61 -8 2 -60
-22 -116 -56z"/>
</g>
</svg>
