<?xml version="1.0" standalone="no"?>
<!DOCTYPE svg PUBLIC "-//W3C//DTD SVG 20010904//EN"
 "http://www.w3.org/TR/2001/REC-SVG-20010904/DTD/svg10.dtd">
<svg version="1.0" xmlns="http://www.w3.org/2000/svg"
 width="1400.000000pt" height="996.000000pt" viewBox="0 0 2560.000000 996.000000"
 preserveAspectRatio="xMidYMid meet">
<metadata>
Created by potrace 1.16, written by Peter Selinger 2001-2019
</metadata>
<g transform="translate(0.000000,996.000000) scale(0.100000,-0.100000)"
fill="#022144" stroke="none">
<path d="M0 5690 l0 -4270 3555 0 3555 0 0 -710 0 -710 2845 0 2845 0 0 710 0
710 6400 0 6400 0 0 4270 0 4270 -12800 0 -12800 0 0 -4270z m7110 0 l0 -2850
-710 0 -710 0 0 2135 0 2135 -710 0 -710 0 0 -2135 0 -2135 -1425 0 -1425 0 0
2850 0 2850 2845 0 2845 0 0 -2850z m7115 0 l0 -2845 -1422 -3 -1423 -2 0
-710 0 -710 -1425 0 -1425 0 0 3560 0 3560 2848 -2 2847 -3 0 -2845z m9955 0
l0 -2850 -712 2 -713 3 -3 2133 -2 2132 -705 0 -705 0 -2 -2132 -3 -2133 -712
-3 -713 -2 0 2135 0 2135 -710 0 -710 0 0 -2135 0 -2135 -1425 0 -1425 0 0
2850 0 2850 4270 0 4270 0 0 -2850z"/>
<path d="M11380 5690 l0 -1420 710 0 710 0 0 1420 0 1420 -710 0 -710 0 0
-1420z"/>
</g>
</svg>
