<?xml version="1.0" standalone="no"?>
<!DOCTYPE svg PUBLIC "-//W3C//DTD SVG 20010904//EN"
 "http://www.w3.org/TR/2001/REC-SVG-20010904/DTD/svg10.dtd">
<svg version="1.0" xmlns="http://www.w3.org/2000/svg"
 width="512.000000pt" height="512.000000pt" viewBox="0 0 512.000000 512.000000"
 preserveAspectRatio="xMidYMid meet">

<g transform="translate(0.000000,512.000000) scale(0.100000,-0.100000)"
fill="#fff" stroke="none">
<path d="M2365 5113 c-1178 -100 -2126 -966 -2325 -2124 -21 -120 -46 -426
-37 -436 6 -6 863 -193 885 -193 9 0 12 37 12 149 0 400 102 725 325 1033 74
103 234 264 340 343 437 327 992 419 1515 253 153 -49 156 -27 -36 -219 -92
-92 -166 -170 -164 -173 6 -6 1813 -466 1816 -463 4 4 -456 1810 -462 1817 -3
2 -82 -73 -177 -168 -95 -95 -176 -172 -180 -172 -4 0 -46 22 -94 48 -365 202
-815 315 -1238 310 -77 -1 -158 -3 -180 -5z"/>
<path d="M4220 2630 c0 -478 -151 -875 -457 -1200 -404 -428 -988 -612 -1560
-489 -78 17 -208 56 -276 84 -16 7 8 34 144 171 90 90 161 165 158 168 -8 8
-1809 469 -1814 464 -5 -4 454 -1807 462 -1818 2 -2 84 76 181 173 l178 178
146 -74 c1002 -508 2194 -321 2983 468 203 203 354 415 485 680 159 323 250
681 262 1035 l3 95 -60 12 c-33 7 -234 48 -447 91 l-388 80 0 -118z"/>
</g>
</svg>
