<?xml version="1.0" standalone="no"?>
<!DOCTYPE svg PUBLIC "-//W3C//DTD SVG 20010904//EN"
 "http://www.w3.org/TR/2001/REC-SVG-20010904/DTD/svg10.dtd">
<svg version="1.0" xmlns="http://www.w3.org/2000/svg"
     width="512px" height="512px" viewBox="0 0 512.000000 512.000000"
 preserveAspectRatio="xMidYMid meet">

<g transform="translate(0.000000,320.000000) scale(0.100000,-0.100000)"
fill="#022144" stroke="none">
<path d="M1740 3189 c-236 -30 -520 -128 -817 -281 -408 -210 -720 -486 -848
-752 -93 -193 -97 -304 -17 -462 82 -162 225 -297 574 -538 70 -48 144 -102
164 -120 l38 -33 -93 -48 c-250 -129 -496 -331 -553 -455 -37 -81 -51 -152
-46 -235 6 -83 31 -145 83 -198 48 -49 98 -62 235 -61 98 0 126 4 188 26 110
40 178 84 272 178 124 124 177 233 201 413 13 104 2 237 -27 305 -8 19 -14 40
-14 46 0 9 207 136 222 136 3 0 -3 -33 -13 -72 -53 -210 -38 -395 44 -542 41
-73 71 -97 131 -103 95 -11 142 34 226 212 31 66 61 130 66 143 6 16 9 -6 9
-75 0 -156 35 -223 118 -223 63 0 128 71 221 239 89 162 217 425 271 561 21
52 42 99 45 103 4 5 17 -31 29 -80 12 -48 40 -126 62 -172 21 -46 39 -88 39
-94 0 -11 -73 -105 -175 -227 -104 -124 -135 -170 -135 -201 0 -87 163 -95
336 -15 90 42 155 102 191 175 36 72 37 174 5 268 l-22 62 54 83 c48 74 180
305 189 332 7 18 11 6 35 -89 12 -49 38 -123 57 -162 l34 -73 -35 -27 c-53
-43 -144 -161 -178 -233 -25 -53 -31 -78 -31 -133 0 -64 2 -71 29 -94 26 -22
37 -25 85 -21 125 10 306 133 357 243 28 60 31 137 8 214 -8 29 -13 55 -11 57
2 3 35 14 73 26 95 29 326 31 429 4 149 -39 252 -113 305 -219 53 -106 35
-196 -55 -275 -26 -23 -52 -42 -56 -42 -12 0 -11 -27 1 -35 15 -10 102 33 138
68 55 53 84 111 89 180 13 162 -86 322 -253 409 -98 51 -164 68 -289 75 -127
6 -219 -6 -326 -42 -123 -43 -110 -47 -152 42 -63 135 -71 244 -27 381 28 89
27 100 -17 119 -39 16 -125 13 -189 -8 -27 -8 -33 -17 -49 -72 -9 -34 -24 -82
-32 -107 -18 -54 -123 -259 -196 -381 l-52 -89 -27 57 c-51 110 -53 239 -7
381 29 88 20 97 -99 97 -124 0 -141 -11 -168 -105 -38 -135 -393 -920 -416
-920 -15 0 -8 104 12 190 11 47 36 147 56 222 21 79 34 147 30 161 -9 39 -95
64 -123 36 -8 -8 -11 10 -11 67 1 95 -17 145 -64 174 -44 28 -124 22 -199 -15
-70 -36 -175 -120 -219 -177 -28 -37 -69 -63 -244 -160 l-211 -116 -60 57
c-33 31 -130 111 -215 178 -310 241 -394 355 -393 533 1 291 270 572 808 845
299 151 538 222 790 232 198 8 325 -18 432 -90 175 -117 115 -403 -133 -637
-212 -201 -540 -332 -829 -333 -155 -1 -260 32 -344 108 -58 52 -82 43 -60
-22 25 -77 131 -164 249 -203 127 -43 388 -38 585 11 249 62 409 146 567 298
238 227 344 510 279 744 -54 196 -245 328 -538 372 -105 16 -287 18 -393 4z
m77 -1795 c13 -35 -49 -239 -157 -506 -67 -167 -105 -233 -135 -233 -47 0 -65
198 -31 340 18 78 98 247 146 312 57 77 161 128 177 87z m1373 -387 c0 -51
-20 -109 -48 -141 -29 -33 -94 -76 -115 -76 -16 0 -18 5 -13 28 12 50 75 167
117 215 48 56 59 51 59 -26z m-2245 -114 c17 -43 17 -172 1 -244 -38 -173
-180 -334 -343 -390 -102 -35 -172 -19 -193 46 -30 92 43 254 163 357 94 80
335 247 358 248 4 0 10 -8 14 -17z m1645 -98 c-30 -62 -158 -171 -177 -151 -3
3 23 36 57 73 35 37 79 90 99 116 31 41 36 45 39 27 2 -11 -6 -41 -18 -65z"/>
</g>
</svg>
