<?xml version="1.0" standalone="no"?>
<!DOCTYPE svg PUBLIC "-//W3C//DTD SVG 20010904//EN"
 "http://www.w3.org/TR/2001/REC-SVG-20010904/DTD/svg10.dtd">
<svg version="1.0" xmlns="http://www.w3.org/2000/svg"
 width="512.000000pt" height="512.000000pt" viewBox="0 0 512.000000 512.000000"
 preserveAspectRatio="xMidYMid meet">

<g transform="translate(0.000000,512.000000) scale(0.100000,-0.100000)"
fill="#fff" stroke="none">
<path d="M2788 5099 c-43 -22 -78 -81 -78 -129 0 -50 35 -107 80 -130 33 -17
59 -20 172 -20 l132 0 -176 -177 c-96 -98 -183 -192 -192 -210 -35 -70 -5
-157 66 -192 43 -20 57 -21 372 -21 308 0 329 1 366 20 45 23 80 80 80 130 0
50 -35 107 -80 130 -33 17 -59 20 -172 20 l-132 0 176 178 c96 97 183 191 192
209 35 70 5 157 -66 192 -43 20 -57 21 -374 21 -308 -1 -331 -2 -366 -21z"/>
<path d="M1588 4199 c-43 -22 -78 -81 -78 -129 0 -50 35 -107 80 -130 33 -17
59 -20 172 -20 l132 0 -176 -177 c-96 -98 -183 -192 -192 -210 -35 -70 -5
-157 66 -192 43 -20 57 -21 372 -21 308 0 329 1 366 20 45 23 80 80 80 130 0
50 -35 107 -80 130 -33 17 -59 20 -172 20 l-132 0 176 178 c96 97 183 191 192
209 35 70 5 157 -66 192 -43 20 -57 21 -374 21 -308 -1 -331 -2 -366 -21z"/>
<path d="M78 3599 c-23 -12 -46 -35 -58 -59 -20 -39 -20 -56 -20 -1730 0
-1675 0 -1691 20 -1730 23 -45 80 -80 130 -80 50 0 107 35 130 80 18 36 20 58
20 285 l0 245 2260 0 2260 0 0 -245 c0 -227 2 -249 20 -285 23 -45 80 -80 130
-80 50 0 107 35 130 80 19 38 20 58 20 590 l0 550 -1444 0 c-940 0 -1462 4
-1497 10 -136 26 -263 122 -319 242 -37 79 -50 146 -50 259 l0 89 -755 0 -755
0 0 840 c0 823 0 842 -20 880 -37 73 -127 99 -202 59z"/>
<path d="M1271 3009 c-227 -44 -391 -278 -353 -505 32 -196 180 -344 376 -376
289 -48 556 219 508 508 -42 255 -281 422 -531 373z"/>
<path d="M2471 2709 c-172 -34 -318 -182 -351 -358 -5 -30 -10 -201 -10 -383
0 -310 1 -331 20 -368 13 -26 34 -47 60 -60 39 -20 56 -20 1485 -20 l1445 0 0
389 c0 222 -4 411 -10 442 -34 180 -179 325 -359 359 -66 12 -2215 12 -2280
-1z"/>
</g>
</svg>
