<?xml version="1.0" encoding="UTF-8"?>
<!DOCTYPE svg PUBLIC "-//W3C//DTD SVG 1.1//EN" "http://www.w3.org/Graphics/SVG/1.1/DTD/svg11.dtd">
<svg xmlns="http://www.w3.org/2000/svg" version="1.1" width="1700.000000pt" height="996.000000pt" viewBox="0 0 2560.000000 996.000000" style="shape-rendering:geometricPrecision; text-rendering:geometricPrecision; image-rendering:optimizeQuality; fill-rule:evenodd; clip-rule:evenodd" xmlns:xlink="http://www.w3.org/1999/xlink">
<g><path style="opacity:0.999" fill="#022144" d="M 540.5,-0.5 C 562.833,-0.5 585.167,-0.5 607.5,-0.5C 778.608,13.128 918.108,86.128 1026,218.5C 1129.34,354.861 1167.01,507.861 1139,677.5C 1109.12,826.843 1033.62,947.01 912.5,1038C 821.428,1103.53 719.761,1140.03 607.5,1147.5C 585.167,1147.5 562.833,1147.5 540.5,1147.5C 389.415,1136.2 261.249,1076.53 156,968.5C 60.8619,865.682 8.69521,744.016 -0.5,603.5C -0.5,583.5 -0.5,563.5 -0.5,543.5C 12.8668,365.57 89.5335,222.07 229.5,113C 321.949,45.0114 425.615,7.17802 540.5,-0.5 Z"/></g>
<g><path style="opacity:1" fill="#fdfefe" d="M 604.5,195.5 C 625.664,194.661 641.498,203.328 652,221.5C 658.882,233.428 665.382,245.595 671.5,258C 697.475,251.431 715.309,260.597 725,285.5C 734.427,310.637 739.761,336.637 741,363.5C 746.13,439.837 726.63,509.004 682.5,571C 729.687,622.913 752.02,684.08 749.5,754.5C 768.825,744.173 787.825,733.339 806.5,722C 831.788,707.793 858.788,698.793 887.5,695C 908.021,692.635 926.687,697.302 943.5,709C 964.328,728.442 969.828,751.609 960,778.5C 952.951,794.549 941.117,805.382 924.5,811C 899.983,816.062 876.983,825.062 855.5,838C 804.017,873.239 748.351,900.239 688.5,919C 677.934,927.531 665.934,933.198 652.5,936C 636.247,938.893 619.914,941.227 603.5,943C 558.269,947.59 512.936,949.924 467.5,950C 447.961,947.997 430.961,940.497 416.5,927.5C 387.949,939.312 359.282,939.478 330.5,928C 316.507,923.648 305.007,915.815 296,904.5C 288.485,892.605 285.485,879.605 287,865.5C 270.183,843.061 260.849,817.727 259,789.5C 255.89,764.277 260.557,740.61 273,718.5C 280.846,705.651 289.846,693.651 300,682.5C 297.593,605.013 325.427,541.013 383.5,490.5C 367.558,464.731 360.391,436.731 362,406.5C 365.394,389.708 371.061,373.708 379,358.5C 383.785,349.75 390.285,342.583 398.5,337C 408.104,333.197 417.438,328.864 426.5,324C 456.786,290.691 494.453,272.024 539.5,268C 546.671,251.149 555.505,235.316 566,220.5C 576.112,207.711 588.945,199.378 604.5,195.5 Z"/></g>
<g><path style="opacity:1" fill="#022144" d="M 606.5,229.5 C 612.901,228.465 618.068,230.465 622,235.5C 634.347,256.693 645.513,278.526 655.5,301C 656.5,301.667 657.5,301.667 658.5,301C 666.261,296.786 674.261,293.119 682.5,290C 685.429,289.223 688.263,289.39 691,290.5C 701.247,313.727 706.913,338.061 708,363.5C 712.385,419.91 701.052,472.91 674,522.5C 664.412,538.681 654.079,554.347 643,569.5C 641.115,571.914 640.448,574.581 641,577.5C 703.235,633.871 726.569,703.538 711,786.5C 710.333,790.5 710.333,794.5 711,798.5C 715.81,799.674 720.643,799.508 725.5,798C 742.991,793.836 759.658,787.503 775.5,779C 794.336,767.747 813.336,756.747 832.5,746C 848.982,737.728 866.316,732.061 884.5,729C 893.167,728.333 901.833,728.333 910.5,729C 929.83,736.161 935.663,749.328 928,768.5C 925.448,772.719 921.948,775.886 917.5,778C 893.598,782.967 870.931,791.301 849.5,803C 820.204,822.263 789.87,839.93 758.5,856C 730.683,869.162 702.017,880.162 672.5,889C 664.378,896.895 654.712,901.895 643.5,904C 586.756,911.769 529.756,916.103 472.5,917C 461.432,916.128 451.432,912.461 442.5,906C 430.886,890.596 430.719,875.096 442,859.5C 446.738,854.926 451.905,850.926 457.5,847.5C 453.872,844.678 450.205,841.845 446.5,839C 443.633,835.138 440.466,831.638 437,828.5C 435.265,829.682 434.265,831.349 434,833.5C 430.93,847.78 426.93,861.78 422,875.5C 415.904,890.133 405.07,898.966 389.5,902C 367.421,905.184 346.754,901.184 327.5,890C 320.908,883.894 318.742,876.394 321,867.5C 323.434,860.126 327.267,853.626 332.5,848C 327.91,848.543 323.243,848.543 318.5,848C 310.845,843.001 305.345,836.168 302,827.5C 293.172,806.708 289.839,785.041 292,762.5C 296.377,744.078 304.71,727.745 317,713.5C 322.301,707.198 327.968,701.198 334,695.5C 330.728,652.263 338.728,611.263 358,572.5C 376.955,543.208 400.455,518.041 428.5,497C 413.726,479.525 403.226,459.692 397,437.5C 393.199,418.674 395.532,400.674 404,383.5C 406.466,376.725 410.3,370.892 415.5,366C 436.318,359.516 453.651,347.849 467.5,331C 495.483,308.498 527.483,298.665 563.5,301.5C 570.21,279.081 580.377,258.414 594,239.5C 597.963,235.787 602.129,232.454 606.5,229.5 Z"/></g>
<g><path style="opacity:0.995" fill="#022144" d="M 2559.5,573.5 C 2559.5,577.833 2559.5,582.167 2559.5,586.5C 2550.56,623.385 2534.39,656.718 2511,686.5C 2480.06,721.706 2442.23,732.539 2397.5,719C 2374.05,706.516 2360.22,687.016 2356,660.5C 2354.99,585.175 2353.99,509.842 2353,434.5C 2352.35,427.384 2349.85,421.051 2345.5,415.5C 2340.98,411.619 2335.98,410.786 2330.5,413C 2323.96,416.216 2317.96,420.216 2312.5,425C 2277.59,462.331 2256.76,506.498 2250,557.5C 2249.67,606.833 2249.33,656.167 2249,705.5C 2246.73,719.904 2238.23,726.57 2223.5,725.5C 2198.28,725.775 2184.11,713.442 2181,688.5C 2151.43,721.907 2114.93,732.74 2071.5,721C 2041.52,710.351 2022.69,689.518 2015,658.5C 2011.11,635.949 2010.45,613.282 2013,590.5C 2020.23,534.82 2034.39,480.987 2055.5,429C 2030.17,428.5 2004.84,428.333 1979.5,428.5C 1978.28,476.339 1972.78,523.672 1963,570.5C 1955.8,602.437 1944.47,632.77 1929,661.5C 1916.55,684.283 1899.05,702.116 1876.5,715C 1847.95,728.504 1819.28,728.837 1790.5,716C 1779.42,709.417 1770.08,700.917 1762.5,690.5C 1731.23,723.695 1693.73,733.361 1650,719.5C 1631.13,712.298 1616.13,700.298 1605,683.5C 1580.48,722.375 1550.48,756.708 1515,786.5C 1514.67,844.833 1514.33,903.167 1514,961.5C 1512.42,988.258 1504.08,1012.59 1489,1034.5C 1466.59,1060.49 1438.42,1070.32 1404.5,1064C 1375.45,1055.96 1355.62,1037.79 1345,1009.5C 1328.21,949.449 1338.88,894.782 1377,845.5C 1382.96,837.872 1389.29,830.538 1396,823.5C 1412.07,807.43 1428.73,792.097 1446,777.5C 1446.67,740.833 1446.67,704.167 1446,667.5C 1434.26,687.905 1418.43,704.405 1398.5,717C 1367.13,731.481 1337.13,729.147 1308.5,710C 1291.63,695.433 1280.46,677.266 1275,655.5C 1268.2,626.169 1266.2,596.503 1269,566.5C 1273.57,504.335 1284.57,443.335 1302,383.5C 1305.43,375.071 1311.6,369.904 1320.5,368C 1333.11,365.248 1345.78,364.915 1358.5,367C 1368.65,370.133 1372.49,376.966 1370,387.5C 1367.51,396.817 1364.17,405.817 1360,414.5C 1346.77,461.324 1338.43,508.99 1335,557.5C 1334.1,578.53 1334.43,599.53 1336,620.5C 1337.49,631.126 1340.82,641.126 1346,650.5C 1358.67,667.758 1374.5,671.258 1393.5,661C 1409.13,648.342 1420.63,632.509 1428,613.5C 1436.23,593.151 1442.23,572.151 1446,550.5C 1446.67,498.5 1446.67,446.5 1446,394.5C 1443.95,386.941 1443.29,379.274 1444,371.5C 1447.48,366.374 1452.31,363.208 1458.5,362C 1477.34,359.171 1493.51,364.338 1507,377.5C 1510.14,382.118 1512.48,387.118 1514,392.5C 1514.33,498.5 1514.67,604.5 1515,710.5C 1542.47,679.257 1564.14,644.257 1580,605.5C 1577.87,553.793 1588.87,505.126 1613,459.5C 1655.3,388.088 1718.14,352.588 1801.5,353C 1822.29,357.128 1832.96,369.795 1833.5,391C 1833.44,396.772 1832.27,402.272 1830,407.5C 1829.1,408.701 1827.93,409.535 1826.5,410C 1750.47,402.918 1696.97,434.085 1666,503.5C 1649.85,544.83 1646.18,587.163 1655,630.5C 1665.31,659.21 1685.15,670.043 1714.5,663C 1727.05,656.114 1736.55,646.28 1743,633.5C 1744.67,629.833 1746.33,626.167 1748,622.5C 1748.67,572.167 1748.67,521.833 1748,471.5C 1746.03,464.949 1745.36,458.282 1746,451.5C 1749.1,445.749 1753.93,442.249 1760.5,441C 1780.03,437.733 1796.53,443.233 1810,457.5C 1813.71,462.59 1816.04,468.257 1817,474.5C 1817.03,529.865 1817.69,585.198 1819,640.5C 1825.78,663.641 1840.28,670.807 1862.5,662C 1870.71,656.786 1877.21,649.952 1882,641.5C 1889.96,626.945 1895.96,611.612 1900,595.5C 1914.76,535.408 1921.42,474.408 1920,412.5C 1905.56,404.064 1894.56,392.397 1887,377.5C 1878.6,357.193 1882.1,339.359 1897.5,324C 1911.21,314.618 1926.21,311.952 1942.5,316C 1964.99,323.105 1978.66,338.271 1983.5,361.5C 1992.84,362.222 2002.17,363.056 2011.5,364C 2035.22,364.04 2058.88,364.707 2082.5,366C 2098.05,374.553 2109.89,386.719 2118,402.5C 2119.51,407.746 2119.84,413.079 2119,418.5C 2106.94,458.388 2096.61,498.722 2088,539.5C 2082.36,567.569 2079.69,595.903 2080,624.5C 2080.75,636.98 2085.08,647.98 2093,657.5C 2109.95,669.379 2126.45,668.545 2142.5,655C 2155.7,640.107 2164.87,622.94 2170,603.5C 2173.79,588.864 2177.46,574.197 2181,559.5C 2181.67,504.5 2181.67,449.5 2181,394.5C 2178.95,386.941 2178.29,379.274 2179,371.5C 2182.37,366.223 2187.2,363.057 2193.5,362C 2212.34,359.171 2228.51,364.338 2242,377.5C 2245.14,382.118 2247.48,387.118 2249,392.5C 2249.33,407.5 2249.67,422.5 2250,437.5C 2259.76,417.628 2271.76,399.295 2286,382.5C 2315.22,351.101 2349.39,344.268 2388.5,362C 2401.39,370.901 2410.56,382.734 2416,397.5C 2418.95,406.629 2420.95,415.963 2422,425.5C 2422.33,494.5 2422.67,563.5 2423,632.5C 2423.05,642.316 2425.72,651.316 2431,659.5C 2438.49,666.494 2446.99,667.994 2456.5,664C 2466.51,659.661 2474.34,652.828 2480,643.5C 2485.8,633.564 2490.8,623.231 2495,612.5C 2500.62,594.667 2505.62,576.667 2510,558.5C 2517.27,542.976 2528.1,539.81 2542.5,549C 2550.53,555.57 2556.2,563.737 2559.5,573.5 Z M 1445.5,846.5 C 1446.17,866.997 1446.5,887.664 1446.5,908.5C 1446.62,932.192 1446.12,955.858 1445,979.5C 1444.08,989.94 1439.92,998.773 1432.5,1006C 1424.06,1011.18 1416.56,1010.02 1410,1002.5C 1402.5,989.393 1399,975.226 1399.5,960C 1399.9,915.923 1415.24,878.089 1445.5,846.5 Z"/></g>
</svg>
