<?xml version="1.0" standalone="no"?>
<!DOCTYPE svg PUBLIC "-//W3C//DTD SVG 20010904//EN"
 "http://www.w3.org/TR/2001/REC-SVG-20010904/DTD/svg10.dtd">
<svg version="1.0" xmlns="http://www.w3.org/2000/svg"
 width="512.000000pt" height="512.000000pt" viewBox="0 0 512.000000 512.000000"
 preserveAspectRatio="xMidYMid meet">

<g transform="translate(0.000000,512.000000) scale(0.100000,-0.100000)"
fill="#000000" stroke="none">
<path d="M1110 4719 c-174 -30 -301 -163 -345 -363 -23 -104 -16 -335 14 -481
39 -181 105 -395 176 -567 6 -14 -8 -21 -82 -44 -312 -94 -559 -226 -708 -378
-215 -217 -219 -468 -13 -692 114 -124 370 -268 636 -358 78 -26 142 -51 142
-54 0 -4 -22 -72 -50 -152 -96 -281 -133 -468 -133 -665 1 -206 44 -333 148
-440 144 -148 391 -170 665 -59 247 100 541 293 805 529 50 45 96 85 103 89 8
5 43 -19 100 -71 393 -354 736 -555 1017 -594 252 -35 446 97 511 346 50 192
3 547 -116 874 -17 46 -29 85 -28 86 2 1 58 17 125 34 469 121 800 299 950
508 193 270 78 574 -300 795 -138 80 -354 167 -580 232 -65 19 -120 36 -123
39 -3 2 11 48 30 100 48 132 92 299 116 440 77 451 -67 749 -384 799 -296 46
-763 -188 -1250 -626 l-76 -68 -65 58 c-194 175 -249 223 -340 293 -379 294
-710 431 -945 390z m256 -234 c177 -54 444 -218 674 -414 112 -95 260 -234
260 -243 0 -4 -42 -52 -92 -106 -51 -54 -124 -133 -163 -176 l-70 -78 -133
-14 c-168 -17 -311 -39 -482 -71 -221 -42 -191 -50 -232 59 -107 280 -156 481
-165 679 -6 150 3 213 43 289 59 109 170 132 360 75z m2470 -46 c55 -26 98
-83 122 -158 36 -119 15 -382 -49 -606 -27 -95 -90 -278 -100 -289 -4 -5 -61
0 -131 12 -240 41 -448 65 -659 78 l-117 7 -63 76 c-35 41 -102 118 -149 170
l-85 94 65 60 c200 184 479 382 665 472 228 112 389 139 501 84z m-1333 -816
c24 -27 61 -67 82 -90 l37 -43 -172 0 -171 0 82 90 c45 50 86 90 90 90 5 0 28
-21 52 -47z m419 -510 c217 -291 425 -610 414 -638 -18 -47 -260 -388 -403
-568 l-93 -117 -268 1 c-147 1 -311 4 -364 8 l-97 6 -83 105 c-159 201 -448
622 -448 653 0 28 282 429 438 622 l64 80 92 6 c50 3 211 6 357 7 l266 2 125
-167z m378 127 c170 -19 409 -56 417 -63 10 -10 -224 -468 -245 -481 -4 -2
-32 35 -61 82 -58 93 -238 356 -297 435 -43 57 -59 55 186 27z m-1532 -32
c-85 -113 -174 -237 -237 -332 -40 -59 -76 -104 -81 -100 -21 23 -205 374
-196 374 3 0 54 10 113 21 97 19 377 65 412 68 9 1 5 -10 -11 -31z m2302 -112
c425 -117 734 -295 815 -469 31 -66 31 -118 0 -184 -86 -187 -406 -361 -903
-492 l-113 -30 -8 22 c-23 58 -145 305 -205 415 l-67 123 49 82 c80 132 194
346 247 461 26 58 51 106 54 106 4 0 62 -15 131 -34z m-2944 -158 c70 -139
136 -263 185 -344 l18 -30 -66 -115 c-36 -62 -106 -194 -154 -291 l-88 -177
-103 33 c-431 138 -708 341 -708 521 0 134 151 280 421 409 111 53 366 146
401 146 13 0 39 -43 94 -152z m611 -993 c45 -60 80 -111 78 -113 -10 -11 -561
83 -578 98 -9 8 59 150 155 322 l59 107 103 -152 c56 -84 139 -201 183 -262z
m1828 133 c52 -105 94 -193 92 -194 -9 -10 -515 -77 -524 -70 -1 1 42 60 95
132 53 71 126 174 162 227 36 53 69 96 73 97 4 0 50 -86 102 -192z m-2250
-382 c142 -30 345 -60 544 -81 79 -8 144 -15 145 -15 2 0 43 -46 92 -102 49
-57 120 -135 157 -175 38 -40 67 -77 65 -82 -5 -17 -207 -189 -323 -276 -452
-339 -819 -448 -960 -283 -58 68 -70 120 -70 298 0 124 5 176 23 260 26 119
78 292 124 411 29 77 32 81 57 75 14 -3 80 -16 146 -30z m2483 -178 c64 -199
88 -307 104 -464 10 -105 10 -132 -5 -204 -31 -158 -100 -224 -232 -224 -38 0
-92 6 -120 13 -224 61 -535 257 -822 519 l-93 84 119 128 c65 71 135 149 156
173 l38 45 81 6 c235 19 663 70 675 82 2 2 14 4 26 4 19 0 27 -19 73 -162z
m-1159 45 c-7 -10 -46 -52 -87 -94 l-74 -77 -77 80 c-42 44 -80 86 -84 94 -7
12 20 14 164 14 162 0 171 -1 158 -17z"/>
<path d="M2444 2925 c-69 -22 -117 -51 -169 -103 -125 -125 -154 -304 -76
-466 16 -33 41 -73 54 -88 197 -215 546 -169 668 88 112 233 -3 495 -250 570
-56 17 -172 17 -227 -1z"/>
</g>
</svg>
