<?xml version="1.0" standalone="no"?>
<!DOCTYPE svg PUBLIC "-//W3C//DTD SVG 20010904//EN"
 "http://www.w3.org/TR/2001/REC-SVG-20010904/DTD/svg10.dtd">
<svg version="1.0" xmlns="http://www.w3.org/2000/svg"
 width="3440.000000pt" height="3109.000000pt" viewBox="0 0 3440.000000 3109.000000"
 preserveAspectRatio="xMidYMid meet">

<g transform="translate(0.000000,3109.000000) scale(0.100000,-0.100000)"
fill="#000000" stroke="none">
<path d="M16940 31079 c-2100 -92 -4123 -1021 -5736 -2633 -998 -999 -1792
-2214 -2334 -3576 -479 -1200 -832 -2566 -994 -3840 -91 -709 -121 -1210 -121
-1990 0 -571 7 -768 41 -1210 157 -2060 701 -4103 1636 -6143 215 -469 577
-1171 838 -1622 l92 -160 -60 -115 c-196 -376 -286 -793 -261 -1218 18 -321
91 -597 233 -887 145 -295 329 -534 570 -742 295 -254 670 -440 1041 -517 352
-72 728 -64 1068 24 633 163 1175 591 1481 1171 172 325 254 648 263 1034 6
232 -7 368 -53 573 -129 579 -498 1109 -999 1435 -272 177 -556 289 -885 348
-158 29 -499 37 -655 16 -60 -9 -113 -12 -117 -9 -13 13 -176 300 -301 528
-930 1704 -1528 3527 -1771 5404 -174 1338 -179 2781 -15 4085 255 2030 977
3863 2123 5392 357 478 596 735 951 1026 1033 848 2507 1434 4025 1602 315 35
817 30 1140 -11 1754 -223 3265 -1400 4374 -3406 673 -1218 1171 -2755 1294
-3997 l18 -174 204 -53 c412 -105 948 -266 1513 -454 l377 -126 0 40 c0 23 -9
140 -20 261 -169 1852 -615 3504 -1336 4948 -412 824 -877 1523 -1467 2202
-153 177 -649 675 -827 830 -1283 1121 -2779 1789 -4340 1940 -331 32 -644 39
-990 24z"/>
<path d="M15065 21450 c-552 -58 -1046 -291 -1429 -674 -357 -357 -588 -818
-662 -1321 -25 -167 -25 -496 0 -660 77 -509 305 -963 661 -1320 356 -356 816
-586 1320 -662 180 -26 516 -24 690 5 519 88 950 313 1311 683 173 178 324
393 426 607 27 56 55 102 61 102 7 0 161 7 342 15 528 23 978 17 1530 -20
2763 -189 5361 -1082 7723 -2656 2085 -1390 3561 -3158 4410 -5285 263 -657
412 -1245 489 -1924 25 -227 25 -907 0 -1140 -73 -666 -250 -1262 -547 -1845
-639 -1253 -1565 -2202 -2709 -2775 -733 -366 -1481 -567 -2431 -652 -196 -18
-1029 -18 -1245 0 -1204 98 -2377 392 -3431 858 -6 3 -64 -43 -130 -102 -314
-281 -918 -767 -1529 -1228 -115 -88 -214 -163 -219 -167 -22 -19 705 -330
1188 -509 1181 -435 2311 -678 3556 -762 241 -16 1012 -16 1245 0 1168 82
2148 298 3140 694 1828 730 3378 2018 4245 3529 646 1127 938 2652 804 4209
-151 1762 -800 3487 -1897 5045 -634 899 -1575 1921 -2512 2725 -2186 1877
-4878 3138 -7880 3689 -889 163 -1790 261 -2760 301 -279 11 -1224 14 -1381 4
l-101 -7 -38 69 c-54 98 -156 245 -239 344 -369 442 -873 727 -1441 815 -118
18 -446 27 -560 15z"/>
<path d="M5813 16362 c-574 -430 -1002 -800 -1509 -1307 -345 -344 -515 -528
-763 -824 -1429 -1712 -2226 -3656 -2351 -5735 -14 -231 -14 -816 0 -1038 73
-1184 354 -2280 836 -3263 410 -838 955 -1529 1689 -2140 1724 -1438 4237
-2163 6825 -1970 628 47 1176 133 1950 306 2607 583 4938 1680 6895 3245 831
665 1603 1421 2285 2239 797 956 1446 1940 2057 3116 l164 316 77 12 c489 76
949 310 1298 659 357 356 575 787 660 1307 26 155 26 524 1 680 -71 430 -237
809 -498 1132 -155 192 -404 407 -621 536 -257 153 -547 256 -858 304 -160 24
-510 25 -669 0 -343 -54 -660 -174 -938 -356 -577 -378 -943 -964 -1044 -1671
-19 -132 -16 -462 5 -605 68 -452 256 -862 555 -1207 l101 -118 -95 -181
c-1178 -2229 -2798 -3941 -5135 -5426 -784 -498 -1711 -1001 -2416 -1311
-1969 -865 -4034 -1176 -6024 -906 -1872 254 -3313 1103 -4222 2489 -631 961
-984 1970 -1059 3027 -15 212 -6 775 15 968 128 1136 527 2187 1242 3266 567
856 1368 1731 2154 2353 80 63 149 118 153 122 5 4 -10 65 -33 135 -120 369
-363 1291 -471 1792 -24 111 -47 202 -51 202 -4 0 -96 -67 -205 -148z"/>
</g>
</svg>
