<?xml version="1.0" standalone="no"?>
<!DOCTYPE svg PUBLIC "-//W3C//DTD SVG 20010904//EN"
 "http://www.w3.org/TR/2001/REC-SVG-20010904/DTD/svg10.dtd">
<svg version="1.0" xmlns="http://www.w3.org/2000/svg"
 width="512.000000pt" height="512.000000pt" viewBox="0 0 512.000000 512.000000"
 preserveAspectRatio="xMidYMid meet">

<g transform="translate(0.000000,512.000000) scale(0.100000,-0.100000)"
fill="#fff" stroke="none">
<path d="M434 5083 c-35 -84 -94 -275 -116 -374 -19 -90 -22 -132 -22 -314 0
-195 2 -217 27 -308 14 -54 41 -133 60 -175 73 -170 70 -167 1081 -1180 l951
-952 121 121 122 121 807 -903 c444 -497 831 -928 859 -958 120 -126 270 -180
421 -152 297 55 454 367 324 641 -29 61 -181 215 -2233 2268 l-2201 2202 -92
0 -93 0 -16 -37z"/>
<path d="M3494 4558 c-303 -304 -565 -573 -581 -598 -79 -117 -116 -219 -137
-370 -8 -58 -19 -117 -25 -131 -9 -24 9 -45 333 -368 l343 -343 76 16 c42 9
88 16 103 16 54 0 161 32 254 77 l95 46 580 578 580 579 -100 100 c-55 55
-104 100 -110 100 -5 0 -191 -181 -412 -402 l-403 -403 -105 105 -105 105 407
407 408 408 -108 107 -107 108 -408 -408 -407 -407 -105 105 -105 105 403 403
c221 221 402 407 402 412 0 13 -192 205 -205 205 -6 0 -258 -249 -561 -552z"/>
<path d="M819 1453 c-694 -696 -747 -752 -773 -810 -114 -263 21 -549 293
-623 58 -15 185 -13 242 4 108 33 120 44 879 802 l745 744 -315 315 c-173 173
-317 315 -320 315 -3 0 -341 -336 -751 -747z"/>
</g>
</svg>
